<mxfile host="" modified="2021-02-03T00:35:18.227Z" agent="5.0 (X11; Linux x86_64) AppleWebKit/537.36 (KHTML, like Gecko) Chrome/84.0.4147.105 Safari/537.36" etag="jdRC-VB0-pPK0Rrr3urX" version="13.7.9" type="embed"><diagram id="iF2TXaxSg7Nrfapfemgs" name="Game"><mxGraphModel dx="963" dy="328" grid="0" gridSize="10" guides="1" tooltips="1" connect="1" arrows="1" fold="1" page="0" pageScale="1" pageWidth="191" pageHeight="413" background="#283618" math="0" shadow="0"><root><mxCell id="FpRKc1-UE1uiO0_pCiBe-0"/><mxCell id="FpRKc1-UE1uiO0_pCiBe-1" parent="FpRKc1-UE1uiO0_pCiBe-0"/><mxCell id="T4S5E3k4Na-drfVy2UpU-3" style="edgeStyle=orthogonalEdgeStyle;rounded=1;orthogonalLoop=1;jettySize=auto;html=1;exitX=1;exitY=0.5;exitDx=0;exitDy=0;entryX=0;entryY=0;entryDx=65;entryDy=180;entryPerimeter=0;strokeWidth=4;fillColor=#e3c800;strokeColor=#B09500;" parent="FpRKc1-UE1uiO0_pCiBe-1" source="UxK4hZ3A402av3ICz7pP-3" target="GRK1O0QYBkYwMnKic4NV-1" edge="1"><mxGeometry relative="1" as="geometry"/></mxCell><mxCell id="UxK4hZ3A402av3ICz7pP-0" value="User" style="swimlane;fontStyle=1;align=center;verticalAlign=top;childLayout=stackLayout;horizontal=1;startSize=26;horizontalStack=0;resizeParent=1;resizeParentMax=0;resizeLast=0;collapsible=1;marginBottom=0;fillColor=#BC6C25;strokeColor=#DDA15E;fontColor=#FEFAE0;sketch=1;rounded=1;" parent="FpRKc1-UE1uiO0_pCiBe-1" vertex="1"><mxGeometry x="213" y="576" width="318" height="252" as="geometry"/></mxCell><mxCell id="UxK4hZ3A402av3ICz7pP-18" value="+ username: string" style="text;fillColor=none;align=left;verticalAlign=top;spacingLeft=4;spacingRight=4;overflow=hidden;rotatable=0;points=[[0,0.5],[1,0.5]];portConstraint=eastwest;fontColor=#FEFAE0;sketch=1;rounded=1;" parent="UxK4hZ3A402av3ICz7pP-0" vertex="1"><mxGeometry y="26" width="318" height="27" as="geometry"/></mxCell><mxCell id="UxK4hZ3A402av3ICz7pP-19" value="+ full_name: string" style="text;fillColor=none;align=left;verticalAlign=top;spacingLeft=4;spacingRight=4;overflow=hidden;rotatable=0;points=[[0,0.5],[1,0.5]];portConstraint=eastwest;fontColor=#FEFAE0;sketch=1;rounded=1;" parent="UxK4hZ3A402av3ICz7pP-0" vertex="1"><mxGeometry y="53" width="318" height="27" as="geometry"/></mxCell><mxCell id="UxK4hZ3A402av3ICz7pP-38" value="+ difficulty_level: int" style="text;fillColor=none;align=left;verticalAlign=top;spacingLeft=4;spacingRight=4;overflow=hidden;rotatable=0;points=[[0,0.5],[1,0.5]];portConstraint=eastwest;fontColor=#FEFAE0;sketch=1;rounded=1;" parent="UxK4hZ3A402av3ICz7pP-0" vertex="1"><mxGeometry y="80" width="318" height="25" as="geometry"/></mxCell><mxCell id="T4S5E3k4Na-drfVy2UpU-0" style="edgeStyle=orthogonalEdgeStyle;orthogonalLoop=1;jettySize=auto;html=1;exitX=0;exitY=0.5;exitDx=0;exitDy=0;entryX=0;entryY=0.5;entryDx=0;entryDy=0;strokeWidth=4;fillColor=#60a917;strokeColor=#2D7600;curved=1;" parent="UxK4hZ3A402av3ICz7pP-0" source="UxK4hZ3A402av3ICz7pP-1" target="UxK4hZ3A402av3ICz7pP-22" edge="1"><mxGeometry relative="1" as="geometry"><Array as="points"><mxPoint x="-29" y="118"/><mxPoint x="-29" y="175"/></Array></mxGeometry></mxCell><mxCell id="UxK4hZ3A402av3ICz7pP-1" value="+ answers: list" style="text;fillColor=none;align=left;verticalAlign=top;spacingLeft=4;spacingRight=4;overflow=hidden;rotatable=0;points=[[0,0.5],[1,0.5]];portConstraint=eastwest;fontColor=#FEFAE0;sketch=1;rounded=1;" parent="UxK4hZ3A402av3ICz7pP-0" vertex="1"><mxGeometry y="105" width="318" height="25" as="geometry"/></mxCell><mxCell id="UxK4hZ3A402av3ICz7pP-2" value="" style="line;strokeWidth=1;fillColor=none;align=left;verticalAlign=middle;spacingTop=-1;spacingLeft=3;spacingRight=3;rotatable=0;labelPosition=right;points=[];portConstraint=eastwest;strokeColor=#DDA15E;fontColor=#FEFAE0;labelBackgroundColor=#283618;sketch=1;rounded=1;" parent="UxK4hZ3A402av3ICz7pP-0" vertex="1"><mxGeometry y="130" width="318" height="3" as="geometry"/></mxCell><mxCell id="UxK4hZ3A402av3ICz7pP-14" value="+ user_already_exist(username): Bool" style="text;strokeColor=none;fillColor=none;align=left;verticalAlign=top;spacingLeft=6;spacingRight=4;overflow=hidden;rotatable=0;points=[[0,0.5],[1,0.5]];portConstraint=eastwest;fontColor=#FEFAE0;sketch=1;rounded=1;spacing=4;" parent="UxK4hZ3A402av3ICz7pP-0" vertex="1"><mxGeometry y="133" width="318" height="26" as="geometry"/></mxCell><mxCell id="UxK4hZ3A402av3ICz7pP-22" value="+ score(self): Integer" style="text;strokeColor=none;fillColor=none;align=left;verticalAlign=top;spacingLeft=6;spacingRight=4;overflow=hidden;rotatable=0;points=[[0,0.5],[1,0.5]];portConstraint=eastwest;fontColor=#FEFAE0;sketch=1;rounded=1;spacing=4;" parent="UxK4hZ3A402av3ICz7pP-0" vertex="1"><mxGeometry y="159" width="318" height="31" as="geometry"/></mxCell><mxCell id="UxK4hZ3A402av3ICz7pP-3" value="+ answers_append(self, answer_to_append: dict): None" style="text;strokeColor=none;fillColor=none;align=left;verticalAlign=top;spacingLeft=6;spacingRight=4;overflow=hidden;rotatable=0;points=[[0,0.5],[1,0.5]];portConstraint=eastwest;fontColor=#FEFAE0;sketch=1;rounded=1;spacing=4;" parent="UxK4hZ3A402av3ICz7pP-0" vertex="1"><mxGeometry y="190" width="318" height="31" as="geometry"/></mxCell><mxCell id="UxK4hZ3A402av3ICz7pP-32" value="+ answers_export(self): None" style="text;strokeColor=none;fillColor=none;align=left;verticalAlign=top;spacingLeft=6;spacingRight=4;overflow=hidden;rotatable=0;points=[[0,0.5],[1,0.5]];portConstraint=eastwest;fontColor=#FEFAE0;sketch=1;rounded=1;spacing=4;" parent="UxK4hZ3A402av3ICz7pP-0" vertex="1"><mxGeometry y="221" width="318" height="31" as="geometry"/></mxCell><mxCell id="UxK4hZ3A402av3ICz7pP-4" value="MathOperation" style="swimlane;fontStyle=1;align=center;verticalAlign=top;childLayout=stackLayout;horizontal=1;startSize=26;horizontalStack=0;resizeParent=1;resizeParentMax=0;resizeLast=0;collapsible=1;marginBottom=0;fillColor=#BC6C25;strokeColor=#DDA15E;fontColor=#FEFAE0;sketch=1;rounded=1;" parent="FpRKc1-UE1uiO0_pCiBe-1" vertex="1"><mxGeometry x="384" y="30" width="227" height="158" as="geometry"/></mxCell><mxCell id="UxK4hZ3A402av3ICz7pP-23" value="- float_allowed: Bool = False" style="text;strokeColor=none;fillColor=none;align=left;verticalAlign=top;spacingLeft=4;spacingRight=4;overflow=hidden;rotatable=0;points=[[0,0.5],[1,0.5]];portConstraint=eastwest;fontColor=#FEFAE0;sketch=1;rounded=1;" parent="UxK4hZ3A402av3ICz7pP-4" vertex="1"><mxGeometry y="26" width="227" height="26" as="geometry"/></mxCell><mxCell id="UxK4hZ3A402av3ICz7pP-6" value="" style="line;strokeWidth=1;fillColor=none;align=left;verticalAlign=middle;spacingTop=-1;spacingLeft=3;spacingRight=3;rotatable=0;labelPosition=right;points=[];portConstraint=eastwest;strokeColor=#DDA15E;fontColor=#FEFAE0;labelBackgroundColor=#283618;sketch=1;rounded=1;" parent="UxK4hZ3A402av3ICz7pP-4" vertex="1"><mxGeometry y="52" width="227" height="8" as="geometry"/></mxCell><mxCell id="4hjrVB2jHyD8nB8C-HsO-7" style="edgeStyle=orthogonalEdgeStyle;curved=1;sketch=0;orthogonalLoop=1;jettySize=auto;html=1;exitX=1;exitY=0.5;exitDx=0;exitDy=0;entryX=1;entryY=0.5;entryDx=0;entryDy=0;strokeColor=#2D7600;strokeWidth=4;fillColor=#60a917;" parent="UxK4hZ3A402av3ICz7pP-4" source="UxK4hZ3A402av3ICz7pP-7" target="UxK4hZ3A402av3ICz7pP-20" edge="1"><mxGeometry relative="1" as="geometry"><Array as="points"><mxPoint x="288" y="74"/><mxPoint x="288" y="138"/></Array></mxGeometry></mxCell><mxCell id="UxK4hZ3A402av3ICz7pP-7" value="- prime_check(Integer): bool" style="text;strokeColor=none;fillColor=none;align=left;verticalAlign=top;spacingLeft=4;spacingRight=4;overflow=hidden;rotatable=0;points=[[0,0.5],[1,0.5]];portConstraint=eastwest;fontColor=#FEFAE0;sketch=1;rounded=1;" parent="UxK4hZ3A402av3ICz7pP-4" vertex="1"><mxGeometry y="60" width="227" height="29" as="geometry"/></mxCell><mxCell id="UxK4hZ3A402av3ICz7pP-21" value="- dividers_allowed(Integer): tuple" style="text;strokeColor=none;fillColor=none;align=left;verticalAlign=top;spacingLeft=4;spacingRight=4;overflow=hidden;rotatable=0;points=[[0,0.5],[1,0.5]];portConstraint=eastwest;fontColor=#FEFAE0;sketch=1;rounded=1;" parent="UxK4hZ3A402av3ICz7pP-4" vertex="1"><mxGeometry y="89" width="227" height="29" as="geometry"/></mxCell><mxCell id="UxK4hZ3A402av3ICz7pP-20" value="+ return_operation(difficulty_level): &#10;       operation, result" style="text;strokeColor=none;fillColor=none;align=left;verticalAlign=top;spacingLeft=4;spacingRight=4;overflow=hidden;rotatable=0;points=[[0,0.5],[1,0.5]];portConstraint=eastwest;fontColor=#FEFAE0;sketch=1;rounded=1;" parent="UxK4hZ3A402av3ICz7pP-4" vertex="1"><mxGeometry y="118" width="227" height="40" as="geometry"/></mxCell><mxCell id="4hjrVB2jHyD8nB8C-HsO-5" style="edgeStyle=orthogonalEdgeStyle;sketch=0;orthogonalLoop=1;jettySize=auto;html=1;exitX=0;exitY=0.5;exitDx=0;exitDy=0;entryX=0;entryY=0.5;entryDx=0;entryDy=0;strokeColor=#2D7600;strokeWidth=4;fillColor=#60a917;curved=1;" parent="UxK4hZ3A402av3ICz7pP-4" source="UxK4hZ3A402av3ICz7pP-4" target="UxK4hZ3A402av3ICz7pP-21" edge="1"><mxGeometry relative="1" as="geometry"><Array as="points"><mxPoint x="-39" y="79"/><mxPoint x="-39" y="103"/></Array></mxGeometry></mxCell><mxCell id="4hjrVB2jHyD8nB8C-HsO-6" style="edgeStyle=orthogonalEdgeStyle;curved=1;sketch=0;orthogonalLoop=1;jettySize=auto;html=1;exitX=1;exitY=0.5;exitDx=0;exitDy=0;strokeColor=#2D7600;strokeWidth=4;fillColor=#60a917;entryX=1;entryY=0.5;entryDx=0;entryDy=0;" parent="UxK4hZ3A402av3ICz7pP-4" source="UxK4hZ3A402av3ICz7pP-21" target="UxK4hZ3A402av3ICz7pP-20" edge="1"><mxGeometry relative="1" as="geometry"><mxPoint x="314" y="144" as="targetPoint"/><Array as="points"><mxPoint x="264" y="104"/><mxPoint x="264" y="139"/><mxPoint x="227" y="139"/></Array></mxGeometry></mxCell><mxCell id="UxK4hZ3A402av3ICz7pP-24" value="UserInterface" style="swimlane;fontStyle=1;align=center;verticalAlign=top;childLayout=stackLayout;horizontal=1;startSize=26;horizontalStack=0;resizeParent=1;resizeParentMax=0;resizeLast=0;collapsible=1;marginBottom=0;fillColor=#BC6C25;strokeColor=#DDA15E;fontColor=#FEFAE0;sketch=1;rounded=1;" parent="FpRKc1-UE1uiO0_pCiBe-1" vertex="1"><mxGeometry x="355" y="297" width="322" height="178" as="geometry"/></mxCell><mxCell id="4hjrVB2jHyD8nB8C-HsO-4" style="edgeStyle=orthogonalEdgeStyle;orthogonalLoop=1;jettySize=auto;html=1;exitX=0;exitY=0.5;exitDx=0;exitDy=0;entryX=0;entryY=0.5;entryDx=0;entryDy=0;strokeColor=#2D7600;fillColor=#60a917;strokeWidth=4;curved=1;" parent="UxK4hZ3A402av3ICz7pP-24" source="UxK4hZ3A402av3ICz7pP-41" target="UxK4hZ3A402av3ICz7pP-44" edge="1"><mxGeometry relative="1" as="geometry"><mxPoint x="10" y="56.5" as="sourcePoint"/><mxPoint x="10" y="166" as="targetPoint"/><Array as="points"><mxPoint x="-40" y="116"/><mxPoint x="-40" y="156"/></Array></mxGeometry></mxCell><mxCell id="UxK4hZ3A402av3ICz7pP-28" value="" style="line;strokeWidth=1;fillColor=none;align=left;verticalAlign=middle;spacingTop=-1;spacingLeft=3;spacingRight=3;rotatable=0;labelPosition=right;points=[];portConstraint=eastwest;strokeColor=#DDA15E;fontColor=#FEFAE0;labelBackgroundColor=#283618;sketch=1;rounded=1;" parent="UxK4hZ3A402av3ICz7pP-24" vertex="1"><mxGeometry y="26" width="322" height="3" as="geometry"/></mxCell><mxCell id="UxK4hZ3A402av3ICz7pP-29" value="- operation_request(difficulty_level): return_operation" style="text;strokeColor=none;fillColor=none;align=left;verticalAlign=top;spacingLeft=6;spacingRight=4;overflow=hidden;rotatable=0;points=[[0,0.5],[1,0.5]];portConstraint=eastwest;fontColor=#FEFAE0;sketch=1;rounded=1;spacing=4;" parent="UxK4hZ3A402av3ICz7pP-24" vertex="1"><mxGeometry y="29" width="322" height="35" as="geometry"/></mxCell><mxCell id="UxK4hZ3A402av3ICz7pP-37" value="- operation_present(operation, result): string" style="text;strokeColor=none;fillColor=none;align=left;verticalAlign=top;spacingLeft=6;spacingRight=4;overflow=hidden;rotatable=0;points=[[0,0.5],[1,0.5]];portConstraint=eastwest;fontColor=#FEFAE0;sketch=1;rounded=1;spacing=4;" parent="UxK4hZ3A402av3ICz7pP-24" vertex="1"><mxGeometry y="64" width="322" height="35" as="geometry"/></mxCell><mxCell id="UxK4hZ3A402av3ICz7pP-41" value="- answer_request(): string" style="text;strokeColor=none;fillColor=none;align=left;verticalAlign=top;spacingLeft=6;spacingRight=4;overflow=hidden;rotatable=0;points=[[0,0.5],[1,0.5]];portConstraint=eastwest;fontColor=#FEFAE0;sketch=1;rounded=1;spacing=4;" parent="UxK4hZ3A402av3ICz7pP-24" vertex="1"><mxGeometry y="99" width="322" height="35" as="geometry"/></mxCell><mxCell id="UxK4hZ3A402av3ICz7pP-44" value="+ new_question(difficulty_level):&#10;       dict(operation, result, answer, answered_correctly)" style="text;strokeColor=none;fillColor=none;align=left;verticalAlign=top;spacingLeft=6;spacingRight=4;overflow=hidden;rotatable=0;points=[[0,0.5],[1,0.5]];portConstraint=eastwest;fontColor=#FEFAE0;sketch=1;rounded=1;spacing=4;" parent="UxK4hZ3A402av3ICz7pP-24" vertex="1"><mxGeometry y="134" width="322" height="44" as="geometry"/></mxCell><mxCell id="4hjrVB2jHyD8nB8C-HsO-3" style="edgeStyle=orthogonalEdgeStyle;orthogonalLoop=1;jettySize=auto;html=1;exitX=1;exitY=0.5;exitDx=0;exitDy=0;entryX=1;entryY=0.5;entryDx=0;entryDy=0;strokeColor=#2D7600;fillColor=#60a917;strokeWidth=4;curved=1;" parent="UxK4hZ3A402av3ICz7pP-24" source="UxK4hZ3A402av3ICz7pP-37" target="UxK4hZ3A402av3ICz7pP-44" edge="1"><mxGeometry relative="1" as="geometry"><mxPoint x="10" y="56.5" as="sourcePoint"/><mxPoint x="10" y="166" as="targetPoint"/><Array as="points"><mxPoint x="363" y="82"/><mxPoint x="363" y="156"/></Array></mxGeometry></mxCell><mxCell id="4hjrVB2jHyD8nB8C-HsO-2" style="edgeStyle=orthogonalEdgeStyle;orthogonalLoop=1;jettySize=auto;html=1;exitX=0;exitY=0.5;exitDx=0;exitDy=0;entryX=0;entryY=0.5;entryDx=0;entryDy=0;strokeColor=#2D7600;fillColor=#60a917;strokeWidth=4;curved=1;" parent="UxK4hZ3A402av3ICz7pP-24" source="UxK4hZ3A402av3ICz7pP-29" target="UxK4hZ3A402av3ICz7pP-44" edge="1"><mxGeometry relative="1" as="geometry"><Array as="points"><mxPoint x="-88" y="46"/><mxPoint x="-88" y="156"/></Array></mxGeometry></mxCell><mxCell id="UxK4hZ3A402av3ICz7pP-34" style="edgeStyle=orthogonalEdgeStyle;rounded=1;sketch=0;orthogonalLoop=1;jettySize=auto;html=1;exitX=0;exitY=0.5;exitDx=0;exitDy=0;fillColor=#e3c800;fontColor=#FEFAE0;strokeColor=#B09500;anchorPointDirection=1;arcSize=20;strokeWidth=4;entryX=1;entryY=0.5;entryDx=0;entryDy=0;" parent="FpRKc1-UE1uiO0_pCiBe-1" source="UxK4hZ3A402av3ICz7pP-20" target="UxK4hZ3A402av3ICz7pP-29" edge="1"><mxGeometry relative="1" as="geometry"><mxPoint x="677" y="345" as="targetPoint"/></mxGeometry></mxCell><mxCell id="4hjrVB2jHyD8nB8C-HsO-10" style="edgeStyle=orthogonalEdgeStyle;sketch=0;orthogonalLoop=1;jettySize=auto;html=1;exitX=1;exitY=0.5;exitDx=0;exitDy=0;strokeWidth=4;fillColor=#e3c800;strokeColor=#B09500;entryX=0;entryY=0;entryDx=0;entryDy=85;entryPerimeter=0;rounded=1;" parent="FpRKc1-UE1uiO0_pCiBe-1" source="UxK4hZ3A402av3ICz7pP-44" target="GRK1O0QYBkYwMnKic4NV-1" edge="1"><mxGeometry relative="1" as="geometry"><mxPoint x="722.0000718060662" y="636.1176326976104" as="targetPoint"/></mxGeometry></mxCell><mxCell id="4hjrVB2jHyD8nB8C-HsO-11" style="edgeStyle=orthogonalEdgeStyle;sketch=0;orthogonalLoop=1;jettySize=auto;html=1;exitX=0;exitY=0.5;exitDx=0;exitDy=0;strokeWidth=4;fillColor=#e51400;strokeColor=#B20000;rounded=1;entryX=0;entryY=0;entryDx=65;entryDy=180;entryPerimeter=0;" parent="FpRKc1-UE1uiO0_pCiBe-1" source="UxK4hZ3A402av3ICz7pP-18" target="GRK1O0QYBkYwMnKic4NV-0" edge="1"><mxGeometry relative="1" as="geometry"><mxPoint x="604" y="820" as="targetPoint"/><mxPoint x="331" y="814.06" as="sourcePoint"/><Array as="points"><mxPoint x="101" y="616"/><mxPoint x="101" y="1145"/><mxPoint x="472" y="1145"/><mxPoint x="472" y="1129"/></Array></mxGeometry></mxCell><mxCell id="GRK1O0QYBkYwMnKic4NV-0" value="main():&lt;br&gt;&lt;br&gt;&amp;nbsp; &amp;nbsp; user: User&lt;br&gt;&amp;nbsp; &amp;nbsp; run_game(user)" style="verticalAlign=top;align=left;spacingTop=8;spacingLeft=2;spacingRight=12;shape=cube;size=10;direction=south;fontStyle=4;html=1;" parent="FpRKc1-UE1uiO0_pCiBe-1" vertex="1"><mxGeometry x="520" y="1064" width="180" height="120" as="geometry"/></mxCell><mxCell id="T4S5E3k4Na-drfVy2UpU-1" style="edgeStyle=orthogonalEdgeStyle;rounded=1;orthogonalLoop=1;jettySize=auto;html=1;exitX=0;exitY=0;exitDx=120;exitDy=95;exitPerimeter=0;entryX=0;entryY=0;entryDx=55;entryDy=0;entryPerimeter=0;strokeWidth=4;fillColor=#e51400;strokeColor=#B20000;" parent="FpRKc1-UE1uiO0_pCiBe-1" source="GRK1O0QYBkYwMnKic4NV-1" target="GRK1O0QYBkYwMnKic4NV-0" edge="1"><mxGeometry relative="1" as="geometry"/></mxCell><mxCell id="GRK1O0QYBkYwMnKic4NV-1" value="run_game(user: User):" style="verticalAlign=top;align=left;spacingTop=8;spacingLeft=2;spacingRight=12;shape=cube;size=10;direction=south;fontStyle=4;html=1;" parent="FpRKc1-UE1uiO0_pCiBe-1" vertex="1"><mxGeometry x="675" y="645" width="180" height="120" as="geometry"/></mxCell><mxCell id="GRK1O0QYBkYwMnKic4NV-2" style="edgeStyle=orthogonalEdgeStyle;rounded=1;orthogonalLoop=1;jettySize=auto;html=1;exitX=0;exitY=0.25;exitDx=0;exitDy=0;fillColor=#e51400;strokeColor=#B20000;strokeWidth=4;entryX=0;entryY=0;entryDx=65;entryDy=180;entryPerimeter=0;" parent="FpRKc1-UE1uiO0_pCiBe-1" source="UxK4hZ3A402av3ICz7pP-0" target="GRK1O0QYBkYwMnKic4NV-0" edge="1"><mxGeometry relative="1" as="geometry"><Array as="points"><mxPoint x="128" y="639"/><mxPoint x="128" y="1104"/><mxPoint x="446" y="1104"/><mxPoint x="446" y="1129"/></Array></mxGeometry></mxCell><mxCell id="GRK1O0QYBkYwMnKic4NV-3" style="edgeStyle=orthogonalEdgeStyle;rounded=1;orthogonalLoop=1;jettySize=auto;html=1;exitX=0;exitY=0.5;exitDx=0;exitDy=0;fillColor=#e51400;strokeColor=#B20000;strokeWidth=4;entryX=0;entryY=0;entryDx=65;entryDy=180;entryPerimeter=0;" parent="FpRKc1-UE1uiO0_pCiBe-1" source="UxK4hZ3A402av3ICz7pP-38" target="GRK1O0QYBkYwMnKic4NV-0" edge="1"><mxGeometry relative="1" as="geometry"><Array as="points"><mxPoint x="162" y="669"/><mxPoint x="162" y="1060"/><mxPoint x="456" y="1060"/><mxPoint x="456" y="1129"/></Array></mxGeometry></mxCell></root></mxGraphModel></diagram></mxfile>